<?xml version="1.0" standalone="no"?>
<!DOCTYPE svg PUBLIC "-//W3C//DTD SVG 20010904//EN"
 "http://www.w3.org/TR/2001/REC-SVG-20010904/DTD/svg10.dtd">
<svg version="1.0" xmlns="http://www.w3.org/2000/svg"
 width="512.000000pt" height="512.000000pt" viewBox="0 0 512.000000 512.000000"
 preserveAspectRatio="xMidYMid meet">

<g transform="translate(0.000000,512.000000) scale(0.100000,-0.100000)"
fill="#000000" stroke="none">
<path d="M2315 5109 c-640 -66 -1215 -355 -1647 -826 -621 -679 -827 -1645
-538 -2523 126 -384 333 -721 621 -1009 406 -405 902 -649 1494 -733 118 -17
512 -17 630 0 592 84 1088 328 1494 733 405 405 649 902 733 1494 17 118 17
512 0 630 -84 592 -328 1088 -733 1494 -396 395 -881 639 -1449 726 -126 19
-477 28 -605 14z"/>
</g>
</svg>
