<?xml version="1.0" encoding="UTF-8" standalone="no"?> <!-- Created with Vectornator for iOS (http://vectornator.io/) --><!DOCTYPE svg PUBLIC "-//W3C//DTD SVG 1.1//EN" "http://www.w3.org/Graphics/SVG/1.1/DTD/svg11.dtd">
<svg height="100%" style="fill-rule:evenodd;clip-rule:evenodd;stroke-linecap:round;stroke-linejoin:round;" xmlns:xlink="http://www.w3.org/1999/xlink" xmlns="http://www.w3.org/2000/svg" xml:space="preserve" width="100%" xmlns:vectornator="http://vectornator.io" version="1.1" viewBox="0 0 188 237">
<metadata>
<vectornator:setting key="DimensionsVisible" value="1"/>
<vectornator:setting key="SnapToGrid" value="0"/>
<vectornator:setting key="SnapToPoints" value="0"/>
<vectornator:setting key="GuidesVisible" value="1"/>
<vectornator:setting key="RulersVisible" value="1"/>
<vectornator:setting key="SnapToEdges" value="0"/>
<vectornator:setting key="DisplayWhiteBackground" value="0"/>
<vectornator:setting key="SnapToGuides" value="1"/>
<vectornator:setting key="GridSpacing" value="36"/>
<vectornator:setting key="Units" value="Points"/>
<vectornator:setting key="DynamicGuides" value="0"/>
<vectornator:setting key="New" value="1"/>
</metadata>
<defs/>
<g id="Ebene 1" vectornator:layerName="Ebene 1">
<g opacity="1">
<path d="M48.2198+138.51C100.42+213.31+188.32+237.31+188.32+237.31L106.92+237.31C67.6198+219.41+40.0198+180.91+40.0198+180.91L40.0198+237.31L0.0198239+237.31L0.0198239+0.0103941C0.0198086+0.0103941+7.01981+79.6104+48.2198+138.51L48.2198+138.51Z" fill-rule="evenodd" fill="#009b8d" opacity="1"/>
<path d="M40.0198+62.3104L40.0198+0.0103941L5.51981+0.0103941C9.41981+25.0104+21.0198+81.1104+52.0198+125.41C55.9198+131.01+60.1198+136.41+64.4198+141.51C65.0198+140.91+65.6198+140.21+66.1198+139.61C118.72+83.6104+188.32+62.3104+188.32+62.3104L113.12+62.3104C94.3198+72.3104+66.4198+95.6104+51.0198+108.91C50.7198+108.61+39.4198+100.61+39.9198+78.5104L39.9198+62.3104L40.0198+62.3104Z" opacity="1" fill="#009b8d"/>
</g>
</g>
</svg>
