<?xml version="1.0" encoding="UTF-8" standalone="no"?> <!-- Created with Vectornator for iOS (http://vectornator.io/) --><!DOCTYPE svg PUBLIC "-//W3C//DTD SVG 1.1//EN" "http://www.w3.org/Graphics/SVG/1.1/DTD/svg11.dtd">
<svg height="100%" style="fill-rule:evenodd;clip-rule:evenodd;stroke-linecap:round;stroke-linejoin:round;" xmlns:xlink="http://www.w3.org/1999/xlink" xmlns="http://www.w3.org/2000/svg" xml:space="preserve" width="100%" xmlns:vectornator="http://vectornator.io" version="1.1" viewBox="0 0 330 330">
<metadata>
<vectornator:setting key="DimensionsVisible" value="1"/>
<vectornator:setting key="SnapToGrid" value="0"/>
<vectornator:setting key="SnapToPoints" value="0"/>
<vectornator:setting key="GuidesVisible" value="1"/>
<vectornator:setting key="RulersVisible" value="1"/>
<vectornator:setting key="SnapToEdges" value="0"/>
<vectornator:setting key="DisplayWhiteBackground" value="0"/>
<vectornator:setting key="SnapToGuides" value="1"/>
<vectornator:setting key="GridSpacing" value="36"/>
<vectornator:setting key="Units" value="Points"/>
<vectornator:setting key="DynamicGuides" value="0"/>
<vectornator:setting key="New" value="1"/>
</metadata>
<defs/>
<g id="Ebene 1" vectornator:layerName="Ebene 1">
<g opacity="1">
<path d="M127.626+249.437C127.626+249.437+115.687+256.705+135.931+258.781C160.328+261.895+173.305+261.377+200.298+256.186C200.298+256.186+207.565+260.857+217.427+264.491C156.695+290.445+79.8704+262.933+127.626+249.437L127.626+249.437ZM119.84+215.697C119.84+215.697+106.863+225.56+127.107+227.636C153.58+230.232+174.344+230.75+210.16+223.483C210.16+223.483+214.832+228.674+222.618+231.27C149.428+253.071+67.4122+233.346+119.84+215.697L119.84+215.697ZM263.107+274.873C263.107+274.873+271.931+282.14+253.244+287.85C218.465+298.231+107.381+301.346+76.2361+287.85C65.3355+283.178+86.0989+276.43+92.8466+275.392C99.5948+273.835+103.228+273.835+103.228+273.835C91.2898+265.529+23.8087+290.964+68.9687+298.231C193.03+318.476+295.29+289.407+263.106+274.873L263.107+274.873ZM133.336+180.399C133.336+180.399+76.7558+193.896+113.092+198.567C128.664+200.643+159.29+200.125+187.84+198.048C211.198+195.972+234.557+191.819+234.557+191.819C234.557+191.819+226.252+195.453+220.542+199.087C162.924+214.14+52.3589+207.392+84.0229+191.819C111.015+178.842+133.335+180.399+133.335+180.399L133.336+180.399ZM234.558+236.979C292.695+206.872+265.703+177.804+247.016+181.438C242.344+182.476+240.267+183.514+240.267+183.514C240.267+183.514+241.825+180.399+245.458+179.361C282.313+166.384+311.382+218.292+233.52+238.537C233.52+238.537+234.038+238.018+234.558+236.979L234.558+236.979ZM139.046+318.995C195.107+322.628+280.756+316.918+282.832+290.445C282.832+290.445+278.68+300.827+236.634+308.613C188.878+317.438+129.703+316.399+94.9239+310.689C94.9239+310.689+102.191+316.918+139.046+318.995L139.046+318.995Z" opacity="1" fill="#4e7896"/>
<path d="M202.115+7.15667C202.115+7.15667+234.298+39.8589+171.489+89.172C121.137+129.141+160.069+151.981+171.489+177.935C141.901+151.462+120.618+128.103+135.153+106.301C156.435+74.1182+215.092+58.546+202.115+7.15677L202.115+7.15667ZM185.504+156.134C200.557+173.264+181.351+188.836+181.351+188.836C181.351+188.836+219.763+169.111+202.115+144.714C186.023+121.355+173.565+109.936+241.046+71.0041C241.046+71.0041+134.634+97.4776+185.504+156.134L185.504+156.134ZM147.092+434.882L147.092+384.011C147.092+371.034+139.825+362.21+121.656+362.21C111.275+362.21+102.45+364.805+94.664+367.92L97.2598+377.263C102.969+375.187+110.237+373.11+118.023+373.11C127.886+373.11+132.557+377.263+132.557+385.569L132.557+392.317L127.367+392.317C102.45+392.317+91.0306+401.66+91.0306+416.713C91.0306+429.172+98.8168+436.439+112.832+436.439C121.656+436.439+128.405+432.286+134.634+427.095L135.672+434.882L147.092+434.882L147.092+434.882ZM132.557+418.271C127.367+422.942+121.656+425.538+116.466+425.538C109.718+425.538+105.565+421.386+105.565+414.118C105.565+406.851+109.718+401.66+126.328+401.66L132.557+401.66L132.557+418.271L132.557+418.271ZM195.886+434.882L177.717+434.882L155.916+363.767L171.489+363.767L184.985+407.37L188.099+420.347C194.847+401.66+200.038+382.454+202.115+363.767L217.687+363.767C213.535+387.126+206.268+412.561+195.886+434.882L195.886+434.882ZM279.977+434.882L279.977+384.011C279.977+371.034+272.71+362.21+254.542+362.21C244.16+362.21+235.336+364.805+227.549+367.92L229.626+377.263C235.855+375.187+243.122+373.11+250.909+373.11C260.771+373.11+265.443+377.263+265.443+385.569L265.443+392.317L260.252+392.317C235.336+392.317+223.916+401.66+223.916+416.713C223.916+429.172+231.183+436.439+245.199+436.439C254.542+436.439+261.29+432.286+267.519+427.095L268.558+434.882L279.977+434.882L279.977+434.882ZM265.443+418.271C260.252+422.942+254.542+425.538+249.351+425.538C242.603+425.538+238.45+421.386+238.45+414.118C238.45+406.851+242.603+401.66+259.214+401.66L265.443+401.66L265.443+418.271L265.443+418.271ZM74.9388+446.82C70.7862+453.049+64.557+457.721+56.7712+460.316L50.0228+452.011C55.2135+448.897+60.4046+444.225+62.4807+440.072C64.557+436.439+65.0765+431.248+65.0765+419.309L65.0765+338.332L80.649+338.332L80.649+418.271C80.649+434.362+79.0917+440.591+74.9389+446.821L74.9388+446.82Z" opacity="1" fill="#f58219"/>
</g>
</g>
</svg>
